<svg width="34" height="34" viewBox="0 0 34 34" fill="none" xmlns="http://www.w3.org/2000/svg">
<rect width="34" height="34" fill="#939393"/>
<g clip-path="url(#clip0_1_26)">
<rect width="1920" height="8779" transform="translate(-251 -3634)" fill="white"/>
<g clip-path="url(#clip1_1_26)">
<rect x="-251" y="-480" width="1920" height="896" fill="#F7FBFD"/>
<g opacity="0.15" clip-path="url(#clip2_1_26)">
<g style="mix-blend-mode:multiply">
<path d="M1572.95 328.026C1415.14 414.889 1156.83 481.57 990.794 491.661C917.993 496.014 808.401 487.703 711.533 470.489C679.158 464.652 649.293 458.122 622.198 450.702C753.864 418.055 958.419 355.332 958.419 281.429C958.419 233.249 902.757 213.561 856.098 205.448C740.879 185.662 555.369 216.43 495.292 265.5C440.669 308.14 431.926 348.01 469.323 383.725C498.062 411.228 550.868 433.191 613.455 450.702C565.67 462.377 528.62 469.895 516.588 472.27C319.997 511.249 37.966 550.13 -189.529 514.415C-276.094 500.169 -329.072 474.842 -345.347 440.413C-366.642 396.19 -325.869 338.414 -236.447 285.881C-222.337 278.065 -207.534 270.15 -191.866 261.741C-133.001 230.181 -66.259 194.467 -31.6327 156.675C8.1875 113.144 -0.382507 73.4723 -57.6024 35.2843C-139.753 -20.118 -260.859 -43.1694 -373.48 -51.3809V-49.4021C-261.724 -41.1907 -141.658 -18.3372 -60.2859 36.5704C-3.84512 74.0659 4.55176 113.045 -34.3162 155.784C-68.9425 193.28 -135.165 228.896 -193.857 260.356C-209.525 268.765 -224.328 276.68 -238.438 284.594C-328.813 337.523 -369.845 395.993 -348.29 440.908C-330.977 476.425 -277.825 501.752 -189.615 516.295C-123.229 526.176 -56.3338 530.902 10.6114 530.442C189.456 530.442 376.351 502.247 518.665 474.051C530.871 471.676 569.133 464.157 618.389 451.791C742.351 485.131 903.017 498.685 992.006 493.342C1157.61 483.449 1414.97 416.966 1573.73 330.4L1572.95 328.026ZM472.353 383.132C435.649 348.01 444.305 308.932 498.322 266.886C545.241 228.599 669.549 201.491 775.852 201.491C802.437 201.292 828.999 203.342 855.319 207.625C900.853 215.44 955.216 234.733 955.216 281.726C955.216 355.134 749.189 417.56 618.389 449.911C549.136 431.609 498.669 408.656 472.353 383.527V383.132Z" fill="url(#paint0_radial_1_26)"/>
</g>
<g style="mix-blend-mode:multiply" opacity="0.99">
<path d="M1572.95 330.103C1562.82 335.446 1552.78 339.997 1542.91 345.141C1411.33 407.568 1222.62 463.86 1072.77 484.24C1049.14 487.505 1026.46 489.88 1005.25 491.364C907.518 498.289 743.736 482.855 623.409 450.01C659.421 441.238 693.297 432.07 725.037 422.506C830.128 390.551 955.735 340.392 957.12 282.912C957.726 258.476 943.962 239.085 916.175 225.037C877.913 205.25 815.152 197.731 739.407 202.579C640.376 209.307 543.509 236.018 503.862 268.666C428.983 330.4 446.296 385.901 553.984 429.432C572.336 436.852 593.025 443.678 615.272 449.911C583.156 457.727 549.396 465.146 514.25 472.269C342.85 506.599 194.909 525.594 61.8581 530.244C-21.1767 533.754 -104.322 529.153 -186.672 516.492C-224.004 511.398 -260.606 500.824 -295.571 485.032C-367.161 449.416 -370.104 393.519 -303.276 335.248C-282.856 317.737 -260.963 302.592 -237.919 290.036C-224.155 282.418 -209.439 274.8 -193.943 266.786C-185.345 262.433 -176.688 257.981 -167.974 253.43C-131.443 234.336 -85.2169 208.812 -52.8414 180.814C4.72476 131.348 0.829376 86.1355 -64.7008 43.3966C-133.953 -1.81567 -240.429 -31.5945 -373.74 -43.2686V-41.3888C-241.468 -29.7148 -135.858 -0.233002 -67.2978 44.6824C-2.02734 87.3224 1.95471 130.259 -55.7846 179.726C-87.987 207.625 -133.694 233.05 -170.398 252.046C-179.054 256.596 -187.711 260.95 -196.367 265.401C-211.949 273.415 -226.665 280.934 -240.516 288.65C-263.725 301.301 -285.765 316.581 -306.306 334.259C-374.086 393.618 -370.97 450.207 -297.649 486.516C-262.256 502.465 -225.223 513.171 -187.451 518.372C-122.481 528.579 -56.9597 533.505 8.62015 533.113C25.9333 533.113 44.1121 533.113 62.2043 532.124C195.602 527.474 343.889 508.479 515.549 474.05C551.733 466.729 586.359 459.079 619.427 451.098C740.619 484.537 906.826 500.564 1005.77 493.342C1027.07 491.858 1049.92 489.385 1073.64 486.12C1226.08 464.949 1411.24 410.239 1545.25 346.625C1553.9 342.272 1563.69 337.622 1573.03 332.775L1572.95 330.103ZM555.802 427.849C449.845 385.11 432.792 330.4 506.459 269.556C545.587 237.403 641.415 210.197 739.494 204.261C753.431 203.37 766.935 202.975 780.007 202.975C836.188 202.975 883.885 211.087 913.577 226.224C940.586 239.877 954.004 258.872 953.398 282.715C952.013 339.205 827.445 388.869 723.133 420.627C690.758 430.322 656.131 439.688 619.254 448.724C596.314 442.491 574.933 435.467 555.802 427.849Z" fill="url(#paint1_radial_1_26)"/>
</g>
<g style="mix-blend-mode:multiply" opacity="0.99">
<path d="M1572.95 331.588C1564.98 335.545 1557.11 339.404 1549.4 342.965C1400.56 410.206 1245.32 457.224 1086.88 483.054C1064.46 486.418 1041.78 488.99 1019.62 490.672C918.685 498.784 746.766 483.35 624.708 448.823C654.573 441.601 687.035 433.093 720.45 423.199C807.015 397.477 952.792 345.141 955.908 283.704C957.12 259.169 943.702 239.581 916.001 225.532C879.124 206.834 816.364 198.919 743.736 204.064C646.349 210.692 551.214 238.294 512.519 271.14C420.067 349.594 490.964 401.731 566.709 431.708C581.945 437.743 598.738 443.481 616.571 448.625C574.673 458.518 538.142 466.136 511.74 471.578C392.366 495.915 233.864 524.902 66.3596 531.926C-17.229 535.776 -100.952 531.108 -183.815 517.977C-221.449 512.728 -258.355 502.091 -293.667 486.318C-366.469 450.406 -370.884 393.619 -305.18 337.919C-284.519 320.734 -262.424 305.921 -239.217 293.697C-224.414 285.782 -208.746 277.867 -192.125 269.557L-168.926 257.982C-116.987 231.666 -81.3215 209.109 -55.9577 186.849C0.0502625 137.383 -5.14374 93.3579 -71.7127 51.0147C-140.1 7.28649 -244.065 -22.3934 -374 -35.6504V-33.6716C-245.19 -20.5136 -142.004 8.9683 -74.3096 52.2019C-8.00031 94.4461 -3.06607 136.888 -58.9009 185.86C-84.005 207.922 -119.497 230.38 -171.436 256.498L-194.636 268.172C-211.257 276.482 -226.925 284.298 -241.728 292.312C-265.117 304.614 -287.386 319.526 -308.21 336.831C-374.952 393.421 -370.278 451.198 -296.091 487.704C-260.417 503.795 -223.096 514.633 -185.027 519.956C-120.506 530.354 -55.414 535.445 9.74557 535.191C28.5303 535.191 47.4882 535.191 66.4461 534.004C234.383 526.98 393.145 497.992 512.779 473.556C539.787 468.016 577.27 460.398 620.38 450.01C743.303 485.23 917.819 501.06 1019.97 492.848C1042.21 491.067 1064.98 488.495 1087.57 485.131C1246.45 459.206 1402.1 411.987 1551.31 344.449C1558.32 341.184 1565.5 337.722 1572.69 334.556L1572.95 331.588ZM568.787 430.52C494.34 400.841 424.568 349.692 515.462 272.228C553.724 239.778 647.821 212.869 744.255 205.943C758.625 204.954 772.562 204.459 785.98 204.459C839.564 204.459 884.838 212.275 913.837 226.917C940.672 240.57 953.744 259.664 952.532 283.606C949.502 344.053 804.851 395.894 718.805 421.518C684.179 431.411 651.284 440.315 620.726 447.735C602.028 442.294 584.542 436.852 568.7 430.125L568.787 430.52Z" fill="url(#paint2_radial_1_26)"/>
</g>
<g style="mix-blend-mode:multiply" opacity="0.98">
<path d="M1572.95 332.874L1555.63 340.788C1408.13 407.172 1233.96 461.387 1101.16 481.866C1079.61 485.23 1057.1 488 1034.08 490.078C930.198 499.377 749.968 483.944 626.179 447.536C654.14 440.908 684.438 433.092 715.948 423.892C803.119 398.466 950.108 346.526 954.695 284.496C956.6 259.762 943.615 240.174 916.174 226.224C880.163 207.823 818.961 200.205 748.237 205.448C652.235 212.571 558.917 240.569 521.175 273.613C450.018 335.941 470.188 391.442 579.52 434.082C591.553 438.732 604.538 443.184 618.215 447.339C581.857 455.946 549.741 462.475 524.637 467.719L509.402 470.786C375.052 498.784 228.929 525.693 70.9469 533.608C-13.2268 537.858 -97.5639 533.089 -180.959 519.362C-218.891 513.889 -256.081 503.055 -291.677 487.11C-365.517 450.999 -371.49 393.322 -306.912 340.195C-285.989 323.373 -263.697 308.895 -240.343 296.961C-225.021 288.947 -208.054 280.736 -191.607 272.822L-169.619 262.038C-130.279 244.315 -93.0277 221.051 -58.7285 192.785C-3.58621 143.318 -9.90543 100.975 -78.3788 58.3353C-146.852 15.6953 -247.701 -13.3908 -373.914 -27.835V-25.9552C-248.74 -11.4121 -148.064 17.8719 -80.9759 59.6215C-13.8875 101.371 -7.48169 143.517 -61.5852 191.796C-95.7169 219.972 -132.758 243.232 -171.87 261.049L-193.858 271.733C-210.305 279.648 -227.358 287.958 -242.68 295.873C-266.227 307.899 -288.695 322.51 -309.769 339.502C-375.472 393.519 -369.24 452.186 -293.927 488.989C-257.913 505.1 -220.286 516.033 -181.911 521.538C-117.932 532.212 -53.3539 537.503 11.3032 537.367C31.3864 537.367 51.383 536.873 71.2931 535.884C229.708 528.068 376.004 501.059 510.614 473.061L525.849 469.895C551.819 464.652 584.628 457.826 622.11 448.922C746.678 486.021 929.678 501.752 1034.68 492.353C1057.8 490.275 1080.48 487.505 1102.12 484.142C1235.34 463.564 1410.12 409.349 1558.14 342.668C1563.17 340.393 1568.19 338.117 1573.03 335.743L1572.95 332.874ZM581.771 432.499C474.256 390.551 454.346 335.94 524.378 274.701C561.514 242.152 654.226 214.451 749.016 207.427C763.559 206.339 777.756 205.745 791.346 205.745C842.766 205.745 886.568 213.363 914.096 227.609C941.624 241.856 953.31 260.257 951.493 284.397C946.991 345.438 801.128 396.883 714.562 422.21C682.273 432.103 651.11 439.622 622.543 446.349C607.741 441.996 594.063 437.347 581.771 432.499Z" fill="url(#paint3_radial_1_26)"/>
</g>
<g style="mix-blend-mode:multiply" opacity="0.98">
<path d="M1572.95 333.862L1562.39 338.611C1402.24 408.656 1239.24 460.496 1115.27 480.678C1094.41 484.141 1072.51 486.911 1048.45 489.385C941.624 500.069 752.651 484.636 627.737 446.25C653.707 440.215 681.668 432.993 711.273 424.584C798.964 399.455 947.078 347.911 953.657 285.286C956.167 260.454 943.615 240.668 916.434 226.718C881.201 208.713 821.212 201.491 752.911 206.932C658.468 214.451 566.795 242.845 530.091 276.185C460.839 338.908 482.307 394.31 592.505 436.456C601.162 439.819 610.511 443.084 620.206 446.349C587.051 454.066 557.446 460.1 532.861 465.146L506.892 470.39C374.706 498.388 232.478 526.583 75.5349 535.586C-9.22363 540.256 -94.1786 535.385 -178.103 521.043C-216.342 515.401 -253.84 504.471 -289.772 488.494C-364.652 452.087 -372.269 393.618 -308.817 342.964C-287.613 326.461 -265.092 312.284 -241.555 300.621C-225.454 292.608 -207.708 284.198 -190.568 276.185L-170.312 266.292C-131.568 249.284 -94.9758 226.461 -61.4986 198.424C-8.08755 150.046 -15.6188 107.801 -85.2176 65.458C-152.219 24.7967 -251.337 -4.48718 -373.914 -20.3164V-18.3379C-252.722 -2.60764 -154.124 26.4786 -87.728 66.7442C-19.4276 108.395 -11.983 149.947 -64.4418 197.434C-97.7245 225.243 -134.08 247.897 -172.562 264.807L-192.732 274.701C-210.045 282.813 -227.791 291.124 -243.892 299.236C-267.618 310.898 -290.29 325.179 -311.587 341.876C-376.165 393.321 -368.287 452.878 -292.023 490.275C-255.802 506.372 -218.019 517.433 -179.488 523.22C-115.756 534.1 -51.4046 539.556 13.0345 539.544C33.9833 539.544 54.8168 538.95 75.5349 537.763C232.911 528.76 375.398 500.564 507.757 472.566L533.727 467.224C559.004 462.079 589.389 455.846 623.669 447.437C749.275 486.516 941.018 502.246 1049.05 491.462C1073.29 489.088 1095.19 486.219 1116.23 482.756C1240.62 462.475 1404.06 410.535 1564.55 340.293L1573.21 336.534L1572.95 333.862ZM594.15 434.774C518.578 405.886 446.555 355.034 532.688 277.075C568.873 244.328 659.507 216.331 753.084 208.812C767.974 207.624 782.43 207.13 796.367 207.13C845.363 207.13 886.915 214.352 913.836 228.202C940.758 242.053 952.445 260.949 950.021 285.188C945.52 330.202 857.915 380.361 709.715 422.902C679.33 431.608 650.504 438.83 624.015 445.063C613.454 441.798 603.499 438.335 594.15 434.774Z" fill="url(#paint4_radial_1_26)"/>
</g>
<g style="mix-blend-mode:multiply" opacity="0.97">
<path d="M1572.95 334.655L1568.88 336.435C1389 412.811 1245.21 459.607 1129.39 479.591C1109.22 482.955 1088.09 485.923 1062.82 488.693C953.052 500.762 755.336 485.527 629.989 445.063C653.881 439.424 679.677 432.993 706.945 425.277C778.016 405.49 944.222 351.671 952.446 286.079C955.562 261.049 943.789 241.262 916.434 227.313C881.808 209.604 823.982 202.678 757.327 208.416C664.355 216.331 574.5 245.12 538.748 278.56C471.227 341.58 494.254 397.279 605.231 438.732C610.684 440.809 616.311 442.788 622.544 444.766C590.341 452.087 561.948 457.826 538.229 462.575C525.504 465.147 514.596 467.323 505.074 469.401H504.382C380.766 496.113 240.616 526.386 80.6428 536.774C-4.7002 541.866 -90.2751 536.893 -174.726 521.934C-213.261 516.168 -251.046 505.107 -287.261 488.989C-364.218 451.89 -373.827 394.014 -310.028 344.943C-288.609 328.72 -265.884 314.873 -242.161 303.59C-224.847 295.279 -206.322 286.771 -188.144 278.56L-170.398 270.447C-132.245 254.37 -96.3239 232.078 -63.7488 204.261C-11.8094 156.477 -20.4659 114.727 -91.3632 72.7798C-158.365 33.2068 -253.068 4.41719 -373.308 -12.4014V-10.4226C-254.107 6.39596 -160.27 34.6905 -93.8737 74.0657C-24.6211 115.321 -15.9646 156.378 -66.692 203.272C-99.0387 230.866 -134.695 252.99 -172.562 268.963L-190.308 276.977C-208.573 285.287 -227.358 293.795 -244.411 302.106C-268.319 313.499 -291.219 327.479 -312.798 343.855C-377.29 393.322 -367.941 452.681 -289.512 490.474C-252.887 506.703 -214.703 517.895 -175.765 523.814C-112.171 534.983 -47.9291 540.638 16.411 540.731C38.2256 540.731 59.6938 540.039 80.989 538.654C241.482 528.266 381.805 497.893 505.68 471.182H506.286C515.722 469.203 526.716 466.928 539.441 464.454C563.679 459.508 593.025 453.671 626.006 445.954C752.306 487.209 952.879 502.84 1063.94 490.572C1089.31 487.802 1110.6 484.834 1130.86 481.372C1247.11 461.585 1391.16 414.493 1571.39 337.919L1573.38 337.128L1572.95 334.655ZM606.789 436.852C530.698 408.162 457.463 357.706 541.345 279.252C576.577 246.308 665.48 217.815 757.759 209.999C772.908 208.713 787.625 208.021 801.648 208.021C848.394 208.021 888.214 215.144 914.183 228.5C940.153 241.856 952.099 261.246 948.81 285.683C940.759 350.286 775.678 403.413 705.214 423.199C677.167 431.114 650.505 437.841 626.006 443.481C619.254 441.601 612.935 439.424 606.789 436.852Z" fill="url(#paint5_radial_1_26)"/>
</g>
<g style="mix-blend-mode:multiply" opacity="0.97">
<path d="M1572.95 335.248C1452.36 384.714 1288.15 452.285 1143.58 478.305C1118.74 482.855 1095.11 485.823 1077.27 488.198C964.738 501.752 757.932 486.714 631.72 443.975C653.621 438.929 677.167 433.092 702.098 426.167C773.514 406.381 940.846 353.253 950.801 287.068C954.61 261.84 942.923 241.954 916.175 227.708C882.5 210.296 826.146 203.766 761.482 209.603C669.982 218.013 581.858 247.297 547.059 280.835C481.442 344.251 505.853 399.554 617.696 440.809L624.188 443.184C592.073 450.505 563.593 456.045 540.479 460.695C525.59 463.564 512.692 466.136 501.958 468.51L478.845 473.655C359.125 500.07 235.336 527.474 84.5382 538.357C-1.35672 543.967 -87.5307 538.925 -172.475 523.319C-211.318 517.384 -249.411 506.227 -285.963 490.078C-363.872 452.78 -374.779 394.113 -312.452 347.417C-290.787 331.535 -267.861 318.021 -243.978 307.052C-225.627 298.445 -205.457 289.541 -185.893 281.033L-171.696 274.8C-134.265 259.581 -99.11 237.857 -67.4711 210.395C-17.263 163.303 -27.3045 121.949 -99.0675 80.3974C-165.031 42.1104 -257.396 13.8157 -374.26 -3.99219V-1.91469C-258.435 15.7943 -166.935 43.7923 -101.578 81.6835C-31.1135 122.543 -21.1585 163.204 -70.5009 209.406C-102.012 236.771 -137.058 258.366 -174.38 273.415L-188.576 279.648C-208.14 288.255 -228.31 297.06 -246.749 305.766C-270.883 316.845 -294.066 330.457 -316.001 346.427C-379.367 394.014 -367.94 453.67 -288.906 491.759C-251.981 508.043 -213.515 519.333 -174.293 525.397C-110.723 536.863 -46.4742 542.717 17.8827 542.908C40.4763 542.908 62.7237 542.116 84.2785 540.533C235.509 529.552 359.557 502.147 479.451 475.633L502.564 470.489C513.211 468.114 526.11 465.641 540.999 462.673C564.891 458.023 593.977 452.285 627.132 444.667C753.864 488.198 963.353 503.532 1077.27 489.879C1095.19 487.802 1119 484.735 1143.93 479.986C1288.23 453.967 1451.67 387.089 1572.26 337.424L1572.95 335.248ZM619.514 439.424C542.817 411.129 468.457 360.773 550.261 282.022C584.022 249.374 673.098 219.892 762.261 211.78C777.583 210.296 792.472 209.603 806.669 209.603C851.25 209.603 889.079 216.43 913.924 229.39C938.768 242.35 951.32 262.236 947.598 286.87C937.816 352.066 771.696 404.699 700.799 424.287C674.829 431.411 650.764 437.445 628.344 442.59L619.514 439.424Z" fill="url(#paint6_radial_1_26)"/>
</g>
<g style="mix-blend-mode:multiply" opacity="0.96">
<path d="M1572.95 335.643L1526.38 354.342C1411.07 401.038 1280.36 453.967 1157.78 477.216C1134.49 481.569 1112.25 484.636 1091.64 487.109C975.991 502.147 760.443 487.109 634.23 442.293C653.88 437.742 675.002 432.4 697.423 426.464C755.093 411.719 811.497 391.125 865.966 364.928C917.04 338.809 945.087 312.79 949.588 287.463C954.09 262.136 942.75 242.053 916.088 228.103C883.193 211.087 828.483 204.755 765.81 210.889C677.253 219.496 588.869 249.869 555.628 283.11C492.522 346.13 517.106 400.939 626.785 441.402C593.804 448.822 565.15 454.363 541.691 458.815C525.157 461.98 510.96 464.75 499.447 467.323L458.934 476.524C347.611 501.85 232.479 528.068 88.9529 539.544C2.47437 545.542 -84.3202 540.398 -169.792 524.209C-208.783 518.198 -247.056 507.18 -283.885 491.363C-363.872 453.274 -376.338 395.201 -314.183 350.088C-292.219 334.479 -269.036 321.231 -244.931 310.515C-224.675 301.314 -202.514 291.816 -180.959 282.813L-172.302 279.054C-135.331 264.764 -100.716 243.496 -69.8951 216.133C-21.3318 169.634 -32.5854 128.775 -105.474 87.5202C-170.311 50.8162 -260.34 22.917 -373.827 4.21875V6.29655C-261.292 24.797 -172.129 52.4979 -107.897 88.9051C-36.3943 129.468 -25.2273 169.535 -72.8383 215.143C-103.437 242.249 -137.787 263.316 -174.466 277.471L-183.123 281.23C-204.678 290.332 -226.925 299.731 -247.268 308.932C-271.335 319.746 -294.511 332.989 -316.521 348.505C-346.905 370.567 -360.583 397.08 -354.956 423.1C-349.329 449.119 -324.831 473.753 -285.703 492.353C-248.418 508.585 -209.652 519.969 -170.138 526.287C-106.504 538.034 -42.1614 544.054 22.2972 544.292C45.4968 544.292 68.2637 543.402 90.1648 541.72C234.037 530.145 349.862 503.928 460.925 478.502L501.438 469.301C512.865 466.729 527.408 463.959 543.509 460.892C567.488 456.242 597.007 450.999 630.94 442.886C757.586 488.791 976.164 503.928 1093.03 488.692C1113.72 486.021 1136.31 482.954 1159.42 478.799C1282.52 455.55 1413.49 402.522 1529.06 355.727C1544.38 349.494 1559.01 343.558 1573.55 337.82L1572.95 335.643ZM558.658 284.495C591.466 251.65 678.811 221.673 766.416 213.165C781.911 211.681 796.973 210.889 811.343 210.889C853.674 210.889 889.772 217.419 913.664 229.884C939.633 243.24 950.454 262.73 946.126 287.562C938.075 333.17 844.584 384.516 695.951 424.881C672.752 431.212 650.937 436.555 630.681 441.205C553.897 413.009 479.97 363.147 558.658 284.495Z" fill="url(#paint7_radial_1_26)"/>
</g>
<g style="mix-blend-mode:multiply" opacity="0.96">
<path d="M1572.95 335.841C1547.76 345.735 1522.05 355.628 1495.04 367.104C1389.52 410.14 1280.36 454.561 1171.8 475.93C1148.86 480.481 1126.7 483.647 1105.93 486.516C989.928 502.741 772.042 489.286 644.791 443.975L636.913 441.106C654.226 437.049 673.011 432.499 692.748 427.255C843.286 387.088 938.768 335.149 948.203 288.749C953.397 263.027 942.577 243.043 916.001 229.39C883.972 212.769 830.82 206.833 770.138 213.165C683.053 222.168 596.401 252.738 564.198 286.375C504.814 347.911 527.408 401.236 629.555 441.106C594.929 448.822 565.583 454.363 541.691 458.815C524.378 462.079 508.883 464.948 496.85 467.719C479.018 471.775 460.752 476.128 443.093 480.283C338.781 504.819 231.007 529.749 93.4542 542.314C6.36676 548.7 -81.0749 543.487 -167.108 526.781C-206.496 520.334 -245.138 508.92 -282.327 492.749C-363.093 454.561 -377.55 395.794 -316.348 352.957C-294.16 337.737 -270.806 324.856 -246.576 314.472C-223.376 304.579 -198.012 293.993 -173.341 283.902C-136.921 270.505 -102.907 249.728 -72.925 222.563C-26.0065 176.857 -38.2987 136.492 -112.486 95.5339C-176.111 60.3139 -263.889 32.8107 -374.087 13.4199V15.3984C-264.928 34.6903 -177.929 61.9959 -114.909 96.9191C-42.2807 137.086 -29.9019 176.758 -75.9548 221.673C-105.69 248.567 -139.408 269.141 -175.505 282.418C-200.09 292.311 -225.454 302.798 -248.74 312.988C-273.179 323.451 -296.735 336.431 -319.118 351.769C-381.358 395.399 -366.815 455.352 -284.491 494.232C-246.914 510.57 -207.864 522.084 -168.061 528.562C-104.307 540.618 -39.8124 546.837 24.8076 547.161C48.6998 547.161 71.8994 546.172 94.0602 544.292C232.046 532.124 340.08 506.698 444.478 482.064L498.235 469.499C510.181 466.729 525.33 463.959 542.817 460.694C567.315 456.045 597.699 450.801 633.104 442.392C636.307 443.678 639.597 444.865 643.06 446.052C771.004 491.66 990.188 505.412 1106.88 488.89C1127.74 486.021 1150.16 482.756 1173.1 478.205C1282 456.638 1391.42 412.118 1497.2 369.379C1523.17 358.695 1548.45 348.505 1572.95 338.908V335.841ZM567.315 286.375C599.084 253.431 684.698 223.058 770.83 214.154C786.499 212.472 801.734 211.681 816.104 211.681C856.444 211.681 890.724 218.013 913.75 229.983C939.72 243.339 949.935 262.73 944.827 287.76C935.565 333.863 840.949 385.209 691.363 425.079C670.818 430.553 651.543 435.302 633.537 439.325C559.956 411.426 494.08 362.652 567.315 286.87V286.375Z" fill="url(#paint8_radial_1_26)"/>
</g>
<g style="mix-blend-mode:multiply" opacity="0.95">
<path d="M1572.95 336.04C1541.78 348.011 1510.19 361.07 1476.95 374.821C1382.5 414.395 1284.86 453.967 1186.09 474.842C1162.8 479.591 1140.29 482.955 1120.47 485.923C1004.64 503.335 786.066 491.364 657.603 446.35C651.717 444.371 645.83 442.194 640.29 439.82C655.439 436.357 671.54 432.499 688.507 428.047C839.824 388.474 936.604 336.534 947.339 289.541C953.052 264.017 942.404 243.34 916.348 230.182C885.184 213.858 833.591 208.318 774.9 214.748C689.286 224.641 604.452 255.509 573.115 289.047C504.555 362.653 562.554 410.833 633.192 439.919C596.661 448.13 565.843 453.671 541.172 458.123C522.82 461.486 506.979 464.256 494.773 467.125C473.478 472.171 452.702 477.019 430.714 482.658C332.549 506.699 231.007 531.63 98.3023 544.194C10.6604 550.908 -77.3697 545.594 -163.905 528.365C-203.601 521.754 -242.552 510.243 -280.076 494.035C-362.833 455.155 -378.761 396.883 -317.905 355.529C-295.452 340.699 -271.903 328.152 -247.527 318.034C-223.808 308.141 -198.012 298.247 -173.687 288.354C-137.928 275.898 -104.58 255.751 -75.4349 228.994C-30.0745 183.881 -43.925 144.011 -118.718 103.449C-181.045 69.7129 -266.485 42.7044 -373.48 22.6211V24.6986C-267.524 44.4851 -183.036 71.3949 -121.055 104.834C-47.3877 144.407 -33.7969 183.98 -78.2051 228.104C-107.021 254.76 -140.012 274.905 -175.418 287.464C-199.83 297.357 -225.626 307.25 -249.345 317.144C-273.907 327.403 -297.655 340.047 -320.329 354.936C-350.627 375.514 -363.093 401.236 -354.955 427.355C-346.818 453.473 -321.455 477.414 -281.634 496.113C-243.732 512.417 -204.408 524.026 -164.338 530.739C-100.254 543.039 -35.4109 549.457 29.5693 549.932C53.8942 549.932 77.3535 548.844 99.6009 546.766C232.739 534.103 334.453 509.172 432.792 485.032C454.78 479.591 475.555 474.545 496.764 469.599C508.883 466.73 524.638 463.861 542.904 460.596C568.094 456.045 599.691 450.703 637.174 441.898C643.579 444.47 650.158 446.943 656.651 449.219C785.98 494.431 1005.86 506.501 1122.29 488.792C1142.2 485.824 1164.79 482.46 1188.25 477.612C1287.45 457.133 1385.36 416.571 1479.98 377.393C1512.44 363.939 1543.43 351.177 1573.9 339.305L1572.95 336.04ZM575.972 289.343C606.789 256.3 690.584 225.433 775.073 216.133C790.914 214.353 806.15 213.462 820.606 213.462C858.868 213.462 891.503 219.497 913.578 230.973C939.115 244.329 949.156 263.819 943.443 289.047C932.882 335.644 836.88 386.891 686.603 426.266C668.943 430.883 652.265 434.973 636.568 438.534C566.449 409.844 508.018 362.257 575.972 289.343Z" fill="url(#paint9_radial_1_26)"/>
</g>
<g style="mix-blend-mode:multiply" opacity="0.95">
<path d="M1572.95 336.04C1538.32 349.297 1503.7 364.137 1466.65 379.669C1380.77 416.175 1291.87 453.869 1200.28 473.655C1178.56 478.305 1157.69 481.669 1137.52 484.835H1134.84C1019.27 503.236 800.09 492.749 670.241 448.23C661.585 445.064 652.149 441.7 643.406 438.336C656.131 435.368 669.376 432.202 683.659 428.443C801.129 398.17 931.67 345.933 945.78 289.937C952.272 264.215 942.058 243.439 916.175 229.885C885.79 214.056 835.755 208.812 778.968 215.441C694.826 225.334 611.81 256.993 581.512 290.729C517.886 361.565 569.393 408.558 636.481 437.743C597.267 446.548 564.891 452.187 539.354 456.639C519.79 460.003 504.728 462.674 492.003 465.642C468.111 471.38 444.825 477.316 420.153 483.648C327.355 507.391 231.354 531.927 102.544 545.085C14.3205 552.354 -74.3525 546.936 -161.395 528.959C-201.362 522.142 -240.591 510.536 -278.432 494.332C-322.84 473.556 -350.714 445.756 -354.869 417.956C-358.245 395.399 -346.212 374.426 -320.243 357.31C-297.534 342.854 -273.787 330.64 -249.259 320.804C-228.743 312.395 -204.418 302.996 -174.899 291.916C-139.68 280.343 -106.936 260.571 -78.7246 233.843C-35.4418 189.422 -50.1579 149.948 -126.249 109.781C-186.845 77.5289 -270.381 50.916 -374.26 30.6348V32.6135C-271.333 53.0926 -189.009 79.4087 -128.586 111.76C-53.8802 151.333 -38.9909 189.916 -81.7543 233.546C-109.725 259.917 -142.135 279.447 -176.977 290.927C-206.582 301.908 -230.907 311.406 -251.423 319.815C-276.18 329.752 -300.158 342.063 -323.099 356.618C-349.935 374.129 -362.227 395.597 -358.765 418.649C-354.523 447.042 -326.216 475.337 -280.855 496.41C-242.628 512.613 -203.026 524.218 -162.693 531.036C-98.7816 543.648 -34.0745 550.265 30.781 550.823C55.8851 550.823 79.9503 549.636 102.977 547.261C232.219 534.103 328.047 509.469 421.452 485.725C446.123 479.393 469.409 473.457 493.215 467.719C505.334 464.85 520.743 462.179 540.22 458.815C566.19 454.264 599.344 448.922 639.424 439.029C648.86 443.085 658.555 446.745 668.25 450.01C798.878 494.926 1019.45 505.413 1135.7 486.813H1138.39C1158.64 483.548 1179.59 480.284 1201.41 475.535C1293.51 455.748 1382.59 417.857 1468.72 381.351C1504.65 366.116 1539.01 351.671 1572.6 338.513L1572.95 336.04ZM584.628 291.817C614.493 258.576 696.557 227.313 779.747 217.518C794.931 215.697 810.187 214.773 825.454 214.748C855.608 213.438 885.681 219.16 913.837 231.567C938.768 244.626 948.463 264.809 942.317 289.839C928.38 345.142 798.791 396.982 682.62 426.959C667.818 430.817 653.794 434.181 640.549 436.852C573.115 408.459 521.608 361.96 584.628 291.817Z" fill="url(#paint10_radial_1_26)"/>
</g>
<g style="mix-blend-mode:multiply" opacity="0.94">
</g>
<g style="mix-blend-mode:multiply" opacity="0.94">
</g>
<g style="mix-blend-mode:multiply" opacity="0.93">
</g>
<g style="mix-blend-mode:multiply" opacity="0.92">
</g>
<g style="mix-blend-mode:multiply" opacity="0.92">
</g>
<g style="mix-blend-mode:multiply" opacity="0.91">
</g>
<g style="mix-blend-mode:multiply" opacity="0.91">
</g>
<g style="mix-blend-mode:multiply" opacity="0.9">
</g>
<g style="mix-blend-mode:multiply" opacity="0.9">
</g>
<g style="mix-blend-mode:multiply" opacity="0.89">
</g>
<g style="mix-blend-mode:multiply" opacity="0.89">
</g>
<g style="mix-blend-mode:multiply" opacity="0.88">
</g>
<g style="mix-blend-mode:multiply" opacity="0.88">
</g>
<g style="mix-blend-mode:multiply" opacity="0.87">
</g>
<g style="mix-blend-mode:multiply" opacity="0.87">
</g>
<g style="mix-blend-mode:multiply" opacity="0.86">
</g>
<g style="mix-blend-mode:multiply" opacity="0.86">
</g>
<g style="mix-blend-mode:multiply" opacity="0.85">
</g>
<g style="mix-blend-mode:multiply" opacity="0.84">
</g>
<g style="mix-blend-mode:multiply" opacity="0.84">
</g>
</g>
<circle cx="17" cy="17" r="28" fill="white"/>
<path d="M31.4382 8.9865H30.9393V2.999C30.9393 2.91395 30.9175 2.8303 30.8761 2.75601C30.8347 2.68172 30.775 2.61924 30.7026 2.57453C30.6303 2.52981 30.5477 2.50433 30.4627 2.5005C30.3778 2.49668 30.2932 2.51464 30.2171 2.55269L27.2234 4.04956C27.1405 4.09099 27.0708 4.15469 27.022 4.23353C26.9733 4.31236 26.9475 4.4032 26.9475 4.49588C26.9475 4.58855 26.9733 4.6794 27.022 4.75823C27.0708 4.83706 27.1405 4.90076 27.2234 4.9422L29.9413 6.30117V8.9865H28.9434C28.8111 8.98653 28.6842 9.03911 28.5907 9.13269L26.5948 11.1285C26.5445 11.1788 26.5054 11.2393 26.4803 11.3059L25.0446 15.1348L22.6992 16.542C22.6259 16.586 22.5651 16.6481 22.5228 16.7223L19.2168 22.5078L17.7197 13.9761H17.9664C18.0987 13.9761 18.2256 13.9235 18.3192 13.8299C18.4127 13.7364 18.4653 13.6095 18.4653 13.4771V12.4792C18.4649 12.0823 18.307 11.7019 18.0264 11.4212C17.7458 11.1406 17.3653 10.9828 16.9684 10.9823H14.2417L14.1576 10.8561C14.1427 10.6335 14.0754 10.4177 13.961 10.2262C13.9256 10.1741 13.8868 10.1243 13.8449 10.0773C14.087 9.91785 14.2997 9.7178 14.4737 9.48596C14.7977 9.05426 14.9716 8.52837 14.9687 7.98858H14.9726C15.1049 7.98858 15.2319 7.93601 15.3254 7.84244C15.419 7.74887 15.4716 7.62196 15.4716 7.48963V6.99067C15.4708 6.32925 15.2077 5.69514 14.74 5.22744C14.2723 4.75975 13.6382 4.49665 12.9768 4.49588H11.9789C11.3174 4.49665 10.6833 4.75975 10.2156 5.22744C9.74794 5.69514 9.48485 6.32925 9.48407 6.99067V7.48963C9.48407 7.62196 9.53664 7.74887 9.63021 7.84244C9.72378 7.93601 9.8507 7.98858 9.98303 7.98858H9.98964C9.98879 8.33391 10.0601 8.6756 10.1991 8.99174C9.97211 8.90128 9.72856 8.85986 9.48445 8.87021C9.24033 8.88057 9.00117 8.94245 8.78267 9.05181C8.56417 9.16116 8.37128 9.3155 8.21667 9.5047C8.06206 9.6939 7.94923 9.91367 7.8856 10.1496L7.15144 12.7841C6.90008 13.072 6.73699 13.4262 6.68165 13.8043C6.62632 14.1825 6.6811 14.5686 6.83944 14.9165C6.99778 15.2643 7.25297 15.5592 7.57449 15.7658C7.89601 15.9724 8.27024 16.082 8.65243 16.0816H8.67439C8.781 16.0785 8.8872 16.0669 8.99197 16.047C9.00952 16.5697 9.19111 17.0736 9.51102 17.4872L9.5195 18.1349L7.42206 19.0036C7.41826 19.0053 7.41583 19.0088 7.41202 19.0105C7.40473 19.0137 7.39693 19.0128 7.38969 19.0163L4.2525 20.5512C4.13364 20.6094 4.04274 20.7123 3.99979 20.8375C3.95684 20.9626 3.96536 21.0997 4.02347 21.2186L5.33885 23.9078C5.39699 24.0266 5.49996 24.1175 5.62511 24.1605C5.75026 24.2034 5.88734 24.1949 6.00621 24.1368L6.90252 23.6983C7.18057 23.562 7.40963 23.3429 7.55825 23.0713C7.70687 22.7996 7.76777 22.4886 7.7326 22.1809L8.7052 21.7054C8.70651 21.7047 8.70732 21.7034 8.70869 21.7027L11.2117 20.6247C11.4282 20.529 11.6192 20.3839 11.7695 20.2011C11.9197 20.0182 12.025 19.8026 12.0768 19.5717L12.2515 18.7783L12.4778 18.8429V23.4563H9.98303C9.85121 23.4564 9.7248 23.5087 9.63139 23.6017L6.23348 26.981L2.92714 27.453C2.82032 27.4684 2.72135 27.5179 2.64506 27.5943C2.56877 27.6706 2.51927 27.7696 2.50396 27.8764L2.005 31.3691C1.99491 31.4399 2.00013 31.5119 2.0203 31.5805C2.04048 31.649 2.07514 31.7125 2.12195 31.7664C2.16875 31.8204 2.22661 31.8637 2.2916 31.8934C2.35659 31.9231 2.4272 31.9385 2.49866 31.9386H31.4382C31.5706 31.9386 31.6975 31.886 31.791 31.7924C31.8846 31.6989 31.9372 31.5719 31.9372 31.4396V9.48546C31.9372 9.35313 31.8846 9.22621 31.791 9.13264C31.6975 9.03907 31.5706 8.9865 31.4382 8.9865ZM28.5622 4.49588L29.9413 3.80638V5.18537L28.5622 4.49588ZM18.3702 23.4563H16.4695V22.9573C16.4691 22.6478 16.373 22.346 16.1943 22.0933C16.0157 21.8406 15.7632 21.6493 15.4716 21.5457V16.9698C15.4716 16.8837 15.4493 16.799 15.4069 16.724C15.3644 16.649 15.3033 16.5863 15.2294 16.542L13.0589 15.2398L13.4087 13.9627C13.4307 13.9688 13.4531 13.9732 13.4757 13.9761H16.7065L18.3702 23.4563ZM14.9726 22.4584C15.1049 22.4585 15.2317 22.5111 15.3253 22.6047C15.4188 22.6982 15.4714 22.825 15.4716 22.9573V23.4563H13.4757V20.9615H14.4737V21.9594C14.4737 22.0917 14.5262 22.2187 14.6198 22.3122C14.7134 22.4058 14.8403 22.4584 14.9726 22.4584ZM13.9747 11.9802H16.9684C17.1007 11.9804 17.2276 12.033 17.3211 12.1265C17.4147 12.2201 17.4673 12.3469 17.4674 12.4792V12.9782H13.6823L12.5071 11.8029C12.4648 11.7606 12.4313 11.7105 12.4084 11.6553C12.3856 11.6002 12.3738 11.541 12.3738 11.4813C12.3738 11.4216 12.3856 11.3624 12.4084 11.3072C12.4313 11.2521 12.4648 11.2019 12.5071 11.1597C12.5541 11.1115 12.6116 11.0747 12.6751 11.0521C12.7385 11.0294 12.8063 11.0216 12.8732 11.0291C12.9403 11.0352 13.0051 11.0563 13.0628 11.0908C13.1205 11.1254 13.1698 11.1725 13.2068 11.2287L13.5596 11.7579C13.6051 11.8263 13.6668 11.8823 13.7392 11.9211C13.8117 11.9599 13.8925 11.9802 13.9747 11.9802ZM13.676 8.88615C13.4882 9.13811 13.2258 9.32442 12.926 9.41854C12.6262 9.51265 12.3043 9.50978 12.0062 9.41034C11.7081 9.31089 11.449 9.11994 11.2658 8.86467C11.0825 8.60939 10.9845 8.30281 10.9856 7.98858H13.9694C13.9722 8.31178 13.8692 8.62702 13.676 8.88615ZM11.4533 11.9307C11.275 12.0422 11.0869 12.1374 10.8915 12.2152L11.2645 10.8459C11.2733 10.8267 11.2807 10.807 11.2869 10.7869C11.3243 10.6966 11.3878 10.6195 11.4693 10.5654C11.5507 10.5113 11.6465 10.4828 11.7442 10.4834H11.7775C11.5944 10.6708 11.4671 10.9054 11.4098 11.161C11.3525 11.4166 11.3675 11.6831 11.4531 11.9307H11.4533ZM11.9789 5.49379H12.9768C13.3736 5.49424 13.7541 5.65209 14.0347 5.93271C14.3154 6.21333 14.4732 6.59381 14.4737 6.99067H10.482C10.4824 6.59381 10.6403 6.21333 10.9209 5.93271C11.2015 5.65209 11.582 5.49424 11.9789 5.49379ZM10.6486 14.0643C10.6437 13.8667 10.6091 13.6709 10.5459 13.4837L10.5819 13.3518C11.0982 13.2353 11.5898 13.0284 12.0339 12.7406L12.5637 13.2703L12.0974 14.974H10.4309C10.5752 14.6925 10.6499 14.3806 10.6486 14.0643ZM8.84821 10.4132C8.87333 10.3186 8.91702 10.2299 8.97675 10.1524C9.03648 10.0748 9.11105 10.01 9.19611 9.96152C9.30662 9.89814 9.43162 9.86437 9.55901 9.86348C9.68641 9.86258 9.81187 9.89459 9.92326 9.95641C10.0347 10.0182 10.1282 10.1078 10.1948 10.2163C10.2615 10.3249 10.2989 10.4489 10.3036 10.5762C10.3025 10.5797 10.3011 10.583 10.3 10.5867L9.79224 12.4521C9.45872 12.2169 9.06069 12.0904 8.65256 12.0899H8.6311C8.5445 12.0938 8.45826 12.1035 8.37295 12.1189L8.84821 10.4132ZM9.36588 14.784C9.27445 14.8779 9.16529 14.9527 9.04473 15.0042C8.92417 15.0556 8.79461 15.0826 8.66353 15.0836C8.39936 15.0844 8.14523 14.9824 7.95476 14.7994C7.81364 14.6613 7.71663 14.4845 7.67601 14.2913C7.63538 14.0981 7.65297 13.8972 7.72655 13.7141C7.80013 13.5309 7.92639 13.3736 8.08936 13.2622C8.25232 13.1508 8.44468 13.0902 8.64208 13.0881H8.65281C8.84932 13.088 9.04148 13.146 9.20519 13.2547C9.3689 13.3634 9.49687 13.518 9.57305 13.6992C9.64923 13.8803 9.67023 14.0799 9.63342 14.273C9.59661 14.466 9.50363 14.6439 9.36613 14.7843L9.36588 14.784ZM6.9223 21.4667C6.80344 21.5248 6.71254 21.6278 6.66959 21.7529C6.62664 21.8781 6.63516 22.0152 6.69327 22.134C6.75139 22.2529 6.75991 22.39 6.71696 22.5151C6.67401 22.6403 6.58311 22.7433 6.46425 22.8014L6.01631 23.0211L5.13914 21.2285L7.38009 20.1322L7.8188 21.0282L6.9223 21.4667ZM11.1028 19.3563C11.0858 19.4339 11.0508 19.5064 11.0005 19.5679C10.9503 19.6294 10.8862 19.6781 10.8135 19.7101L8.72615 20.6091L8.29393 19.7228L10.214 18.9276C10.3062 18.8894 10.3848 18.8245 10.4397 18.7412C10.4946 18.6579 10.5233 18.56 10.522 18.4602L10.5193 18.2581C10.6088 18.2984 10.7006 18.3331 10.7943 18.3623L11.2906 18.5039L11.1028 19.3563ZM11.0686 17.4029C10.7579 17.3128 10.4844 17.125 10.2888 16.8672C10.0933 16.6094 9.98602 16.2955 9.98303 15.9719H12.3397L14.4737 17.2524V19.9636H13.4757V18.4667C13.4757 18.3583 13.4404 18.2528 13.3751 18.1662C13.3099 18.0796 13.2182 18.0167 13.114 17.9868L11.0686 17.4029ZM30.9393 30.9406H3.0739L3.43857 28.3879L5.04996 28.1578L3.99896 29.2031L4.70256 29.9106L6.77323 27.8509C6.79787 27.8363 6.82117 27.8195 6.84284 27.8007L10.1896 24.4542H18.1236L15.8073 28.5253L16.6746 29.0184L23.3249 17.3303L24.5036 16.6229L22.2365 22.7221L23.172 23.07L27.378 11.7568L29.15 9.98442H30.9393V30.9406Z" fill="#030303"/>
<path d="M18.0127 7.06074C17.6722 7.16884 17.3816 7.39517 17.1933 7.69882C17.0051 8.00248 16.9317 8.36344 16.9864 8.71649C17.041 9.06955 17.2202 9.39141 17.4914 9.62392C17.7627 9.85643 18.1081 9.98427 18.4654 9.98433H19.4633C19.4637 10.3812 19.6216 10.7617 19.9022 11.0423C20.1828 11.3229 20.5633 11.4808 20.9602 11.4812H23.9539C24.3119 11.4812 24.6581 11.353 24.9296 11.1197C25.2011 10.8864 25.3801 10.5635 25.434 10.2096C25.4878 9.85566 25.4131 9.49415 25.2232 9.19063C25.0334 8.8871 24.7411 8.66166 24.3993 8.55519C24.3324 8.25798 24.1987 7.97991 24.0083 7.74207C24.1849 7.52316 24.3131 7.26939 24.3847 6.9974C24.4563 6.72542 24.4695 6.44138 24.4235 6.16392C24.3776 5.88647 24.2734 5.62187 24.118 5.38749C23.9625 5.15312 23.7593 4.95427 23.5216 4.80399C23.2838 4.65372 23.017 4.55542 22.7386 4.51554C22.4602 4.47567 22.1765 4.49512 21.9062 4.57262C21.6358 4.65012 21.3849 4.78392 21.1699 4.96524C20.955 5.14655 20.7807 5.37128 20.6587 5.62468C20.3473 5.50303 20.0097 5.46355 19.6785 5.51001C19.3474 5.55648 19.0337 5.68733 18.7678 5.89C18.3831 6.17637 18.1149 6.59218 18.0127 7.06074ZM22.4571 5.4937C22.7216 5.49402 22.9753 5.59926 23.1623 5.78633C23.3494 5.97341 23.4547 6.22705 23.455 6.49162C23.456 6.73208 23.3688 6.96458 23.2099 7.14507C23.0601 7.08077 22.9029 7.03557 22.7418 7.01054C22.47 6.97286 22.1932 6.99212 21.9292 7.06711C21.9255 7.06586 21.9219 7.06421 21.9183 7.06256C21.9145 7.06081 21.9107 7.05906 21.9067 7.05781C21.8395 6.75012 21.6989 6.46323 21.4969 6.22162C21.5556 6.01214 21.6812 5.82761 21.8546 5.69618C22.0279 5.56475 22.2395 5.49364 22.4571 5.4937ZM21.465 8.96009C21.4635 8.92123 21.4648 8.8823 21.4691 8.84365C21.5037 8.60633 21.6224 8.38934 21.8036 8.23227C21.9848 8.07519 22.2165 7.9885 22.4563 7.98799C22.5042 7.98796 22.552 7.99155 22.5993 7.99872C22.8356 8.03447 23.0512 8.15373 23.207 8.33485C23.3629 8.51598 23.4486 8.74697 23.4487 8.98591C23.4487 9.05148 23.4615 9.11641 23.4866 9.17701C23.5116 9.2376 23.5484 9.29266 23.5947 9.33905C23.641 9.38544 23.6961 9.42223 23.7566 9.44734C23.8172 9.47245 23.8821 9.48537 23.9477 9.48537H23.9539C24.0863 9.48537 24.2132 9.53794 24.3067 9.63151C24.4003 9.72508 24.4529 9.85199 24.4529 9.98433C24.4529 10.1167 24.4003 10.2436 24.3067 10.3371C24.2132 10.4307 24.0863 10.4833 23.9539 10.4833H20.9602C20.8947 10.4829 20.8298 10.4696 20.7695 10.4442C20.7091 10.4188 20.6543 10.3817 20.6082 10.3351C20.5622 10.2885 20.5257 10.2332 20.501 10.1726C20.4763 10.1119 20.4638 10.0469 20.4642 9.98139C20.4645 9.91587 20.4778 9.85106 20.5033 9.79067C20.5287 9.73029 20.5658 9.6755 20.6124 9.62944C20.659 9.58338 20.7142 9.54695 20.7749 9.52223C20.8356 9.49751 20.9005 9.48498 20.966 9.48537C21.2416 9.48537 21.465 9.23539 21.465 8.96009ZM18.9692 7.48954C18.9676 7.44206 18.9691 7.39454 18.9738 7.34727C18.9925 7.21741 19.0366 7.0925 19.1036 6.9797C19.1706 6.86689 19.2592 6.76839 19.3642 6.68983C19.4693 6.61126 19.5888 6.55418 19.716 6.52184C19.8432 6.4895 19.9754 6.48254 20.1053 6.50135C20.3047 6.52955 20.4899 6.62032 20.6344 6.76056C20.7364 6.85246 20.8178 6.96495 20.8731 7.09062C20.9284 7.21628 20.9564 7.35224 20.9553 7.48954C20.9573 7.54294 20.9681 7.59564 20.9875 7.64546C20.7494 7.90147 20.5837 8.21616 20.5072 8.55731C20.2543 8.63942 20.0278 8.78755 19.8512 8.98641H18.4654C18.3999 8.98609 18.335 8.97287 18.2746 8.9475C18.2142 8.92213 18.1594 8.88511 18.1133 8.83855C18.0672 8.79199 18.0307 8.73681 18.0059 8.67615C17.9811 8.61549 17.9685 8.55054 17.9689 8.48502C17.9692 8.4195 17.9824 8.35468 18.0078 8.29426C18.0331 8.23385 18.0702 8.17902 18.1167 8.13292C18.1633 8.08681 18.2185 8.05032 18.2791 8.02554C18.3398 8.00076 18.4047 7.98817 18.4703 7.98849C18.6026 7.98849 18.7295 7.93593 18.8231 7.84235C18.9166 7.74878 18.9692 7.62187 18.9692 7.48954ZM21.9581 2H22.956V3.49687H21.9581V2ZM18.929 3.66839L19.6345 2.96286L20.6929 4.02122L19.9873 4.72674L18.929 3.66839ZM25.4508 5.99166H26.9477V6.98958H25.4508V5.99166ZM24.2212 4.02115L25.2795 2.96286L25.9851 3.66839L24.9267 4.72668L24.2212 4.02115Z" fill="#030303"/>
<path d="M18.0127 7.06074C17.6722 7.16884 17.3816 7.39517 17.1933 7.69882C17.0051 8.00248 16.9317 8.36344 16.9864 8.71649C17.041 9.06955 17.2202 9.39141 17.4914 9.62392C17.7627 9.85643 18.1081 9.98427 18.4654 9.98433H19.4633C19.4637 10.3812 19.6216 10.7617 19.9022 11.0423C20.1828 11.3229 20.5633 11.4808 20.9602 11.4812H23.9539C24.3119 11.4812 24.6581 11.353 24.9296 11.1197C25.2011 10.8864 25.3801 10.5635 25.434 10.2096C25.4878 9.85566 25.4131 9.49415 25.2232 9.19063C25.0334 8.8871 24.7411 8.66166 24.3993 8.55519C24.3324 8.25798 24.1987 7.97991 24.0083 7.74207C24.1849 7.52316 24.3131 7.26939 24.3847 6.9974C24.4563 6.72542 24.4695 6.44138 24.4235 6.16392C24.3776 5.88647 24.2734 5.62187 24.118 5.38749C23.9625 5.15312 23.7593 4.95427 23.5216 4.80399C23.2838 4.65372 23.017 4.55542 22.7386 4.51554C22.4602 4.47567 22.1765 4.49512 21.9062 4.57262C21.6358 4.65012 21.3849 4.78392 21.1699 4.96524C20.955 5.14655 20.7807 5.37128 20.6587 5.62468C20.3473 5.50303 20.0097 5.46355 19.6785 5.51001C19.3474 5.55648 19.0337 5.68733 18.7678 5.89C18.3831 6.17637 18.1149 6.59218 18.0127 7.06074ZM22.4571 5.4937C22.7216 5.49402 22.9753 5.59926 23.1623 5.78633C23.3494 5.97341 23.4547 6.22705 23.455 6.49162C23.456 6.73208 23.3688 6.96458 23.2099 7.14507C23.0601 7.08077 22.9029 7.03557 22.7418 7.01054C22.47 6.97286 22.1932 6.99212 21.9292 7.06711C21.9255 7.06586 21.9219 7.06421 21.9183 7.06256C21.9145 7.06081 21.9107 7.05906 21.9067 7.05781C21.8395 6.75012 21.6989 6.46323 21.4969 6.22162C21.5556 6.01214 21.6812 5.82761 21.8546 5.69618C22.0279 5.56475 22.2395 5.49364 22.4571 5.4937ZM21.465 8.96009C21.4635 8.92123 21.4648 8.8823 21.4691 8.84365C21.5037 8.60633 21.6224 8.38934 21.8036 8.23227C21.9848 8.07519 22.2165 7.9885 22.4563 7.98799C22.5042 7.98796 22.552 7.99155 22.5993 7.99872C22.8356 8.03447 23.0512 8.15373 23.207 8.33485C23.3629 8.51598 23.4486 8.74697 23.4487 8.98591C23.4487 9.05148 23.4615 9.11641 23.4866 9.17701C23.5116 9.2376 23.5484 9.29266 23.5947 9.33905C23.641 9.38544 23.6961 9.42223 23.7566 9.44734C23.8172 9.47245 23.8821 9.48537 23.9477 9.48537H23.9539C24.0863 9.48537 24.2132 9.53794 24.3067 9.63151C24.4003 9.72508 24.4529 9.85199 24.4529 9.98433C24.4529 10.1167 24.4003 10.2436 24.3067 10.3371C24.2132 10.4307 24.0863 10.4833 23.9539 10.4833H20.9602C20.8947 10.4829 20.8298 10.4696 20.7695 10.4442C20.7091 10.4188 20.6543 10.3817 20.6082 10.3351C20.5622 10.2885 20.5257 10.2332 20.501 10.1726C20.4763 10.1119 20.4638 10.0469 20.4642 9.98139C20.4645 9.91587 20.4778 9.85106 20.5033 9.79067C20.5287 9.73029 20.5658 9.6755 20.6124 9.62944C20.659 9.58338 20.7142 9.54695 20.7749 9.52223C20.8356 9.49751 20.9005 9.48498 20.966 9.48537C21.2416 9.48537 21.465 9.23539 21.465 8.96009ZM18.9692 7.48954C18.9676 7.44206 18.9691 7.39454 18.9738 7.34727C18.9925 7.21741 19.0366 7.0925 19.1036 6.9797C19.1706 6.86689 19.2592 6.76839 19.3642 6.68983C19.4693 6.61126 19.5888 6.55418 19.716 6.52184C19.8432 6.4895 19.9754 6.48254 20.1053 6.50135C20.3047 6.52955 20.4899 6.62032 20.6344 6.76056C20.7364 6.85246 20.8178 6.96495 20.8731 7.09062C20.9284 7.21628 20.9564 7.35224 20.9553 7.48954C20.9573 7.54294 20.9681 7.59564 20.9875 7.64546C20.7494 7.90147 20.5837 8.21616 20.5072 8.55731C20.2543 8.63942 20.0278 8.78755 19.8512 8.98641H18.4654C18.3999 8.98609 18.335 8.97287 18.2746 8.9475C18.2142 8.92213 18.1594 8.88511 18.1133 8.83855C18.0672 8.79199 18.0307 8.73681 18.0059 8.67615C17.9811 8.61549 17.9685 8.55054 17.9689 8.48502C17.9692 8.4195 17.9824 8.35468 18.0078 8.29426C18.0331 8.23385 18.0702 8.17902 18.1167 8.13292C18.1633 8.08681 18.2185 8.05032 18.2791 8.02554C18.3398 8.00076 18.4047 7.98817 18.4703 7.98849C18.6026 7.98849 18.7295 7.93593 18.8231 7.84235C18.9166 7.74878 18.9692 7.62187 18.9692 7.48954ZM21.9581 2H22.956V3.49687H21.9581V2ZM18.929 3.66839L19.6345 2.96286L20.6929 4.02122L19.9873 4.72674L18.929 3.66839ZM25.4508 5.99166H26.9477V6.98958H25.4508V5.99166ZM24.2212 4.02115L25.2795 2.96286L25.9851 3.66839L24.9267 4.72668L24.2212 4.02115Z" stroke="#030303"/>
</g>
</g>
<defs>
<radialGradient id="paint0_radial_1_26" cx="0" cy="0" r="1" gradientUnits="userSpaceOnUse" gradientTransform="translate(1666.2 937.926) scale(2959.42 1646.21)">
<stop stop-color="white"/>
<stop offset="0.15" stop-color="#FCFDFE"/>
<stop offset="0.27" stop-color="#F1F9FC"/>
<stop offset="0.38" stop-color="#E0F0F8"/>
<stop offset="0.49" stop-color="#C8E5F2"/>
<stop offset="0.59" stop-color="#A9D6EB"/>
<stop offset="0.63" stop-color="#9BD0E8"/>
<stop offset="0.83" stop-color="#8DCBE5"/>
<stop offset="1" stop-color="#86C8E4"/>
</radialGradient>
<radialGradient id="paint1_radial_1_26" cx="0" cy="0" r="1" gradientUnits="userSpaceOnUse" gradientTransform="translate(1666.2 937.926) scale(2959.42 1646.21)">
<stop stop-color="white"/>
<stop offset="0.15" stop-color="#FCFDFE"/>
<stop offset="0.27" stop-color="#F1F9FC"/>
<stop offset="0.38" stop-color="#E0F0F8"/>
<stop offset="0.49" stop-color="#C8E5F2"/>
<stop offset="0.59" stop-color="#A9D6EB"/>
<stop offset="0.63" stop-color="#9BD0E8"/>
<stop offset="0.83" stop-color="#8DCBE5"/>
<stop offset="1" stop-color="#86C8E4"/>
</radialGradient>
<radialGradient id="paint2_radial_1_26" cx="0" cy="0" r="1" gradientUnits="userSpaceOnUse" gradientTransform="translate(1666.2 937.926) scale(2959.42 1646.21)">
<stop stop-color="white"/>
<stop offset="0.15" stop-color="#FCFDFE"/>
<stop offset="0.27" stop-color="#F1F9FC"/>
<stop offset="0.38" stop-color="#E0F0F8"/>
<stop offset="0.49" stop-color="#C8E5F2"/>
<stop offset="0.59" stop-color="#A9D6EB"/>
<stop offset="0.63" stop-color="#9BD0E8"/>
<stop offset="0.83" stop-color="#8DCBE5"/>
<stop offset="1" stop-color="#86C8E4"/>
</radialGradient>
<radialGradient id="paint3_radial_1_26" cx="0" cy="0" r="1" gradientUnits="userSpaceOnUse" gradientTransform="translate(1666.2 937.926) scale(2959.42 1646.21)">
<stop stop-color="white"/>
<stop offset="0.15" stop-color="#FCFDFE"/>
<stop offset="0.27" stop-color="#F1F9FC"/>
<stop offset="0.38" stop-color="#E0F0F8"/>
<stop offset="0.49" stop-color="#C8E5F2"/>
<stop offset="0.59" stop-color="#A9D6EB"/>
<stop offset="0.63" stop-color="#9BD0E8"/>
<stop offset="0.83" stop-color="#8DCBE5"/>
<stop offset="1" stop-color="#86C8E4"/>
</radialGradient>
<radialGradient id="paint4_radial_1_26" cx="0" cy="0" r="1" gradientUnits="userSpaceOnUse" gradientTransform="translate(1666.2 937.926) scale(2959.42 1646.21)">
<stop stop-color="white"/>
<stop offset="0.15" stop-color="#FCFDFE"/>
<stop offset="0.27" stop-color="#F1F9FC"/>
<stop offset="0.38" stop-color="#E0F0F8"/>
<stop offset="0.49" stop-color="#C8E5F2"/>
<stop offset="0.59" stop-color="#A9D6EB"/>
<stop offset="0.63" stop-color="#9BD0E8"/>
<stop offset="0.83" stop-color="#8DCBE5"/>
<stop offset="1" stop-color="#86C8E4"/>
</radialGradient>
<radialGradient id="paint5_radial_1_26" cx="0" cy="0" r="1" gradientUnits="userSpaceOnUse" gradientTransform="translate(1666 937.926) scale(2959.42 1646.21)">
<stop stop-color="white"/>
<stop offset="0.15" stop-color="#FCFDFE"/>
<stop offset="0.27" stop-color="#F1F9FC"/>
<stop offset="0.38" stop-color="#E0F0F8"/>
<stop offset="0.49" stop-color="#C8E5F2"/>
<stop offset="0.59" stop-color="#A9D6EB"/>
<stop offset="0.63" stop-color="#9BD0E8"/>
<stop offset="0.83" stop-color="#8DCBE5"/>
<stop offset="1" stop-color="#86C8E4"/>
</radialGradient>
<radialGradient id="paint6_radial_1_26" cx="0" cy="0" r="1" gradientUnits="userSpaceOnUse" gradientTransform="translate(1666 937.926) scale(2959.42 1646.21)">
<stop stop-color="white"/>
<stop offset="0.15" stop-color="#FCFDFE"/>
<stop offset="0.27" stop-color="#F1F9FC"/>
<stop offset="0.38" stop-color="#E0F0F8"/>
<stop offset="0.49" stop-color="#C8E5F2"/>
<stop offset="0.59" stop-color="#A9D6EB"/>
<stop offset="0.63" stop-color="#9BD0E8"/>
<stop offset="0.83" stop-color="#8DCBE5"/>
<stop offset="1" stop-color="#86C8E4"/>
</radialGradient>
<radialGradient id="paint7_radial_1_26" cx="0" cy="0" r="1" gradientUnits="userSpaceOnUse" gradientTransform="translate(1666.2 937.926) scale(2959.42 1646.21)">
<stop stop-color="white"/>
<stop offset="0.15" stop-color="#FCFDFE"/>
<stop offset="0.27" stop-color="#F1F9FC"/>
<stop offset="0.38" stop-color="#E0F0F8"/>
<stop offset="0.49" stop-color="#C8E5F2"/>
<stop offset="0.59" stop-color="#A9D6EB"/>
<stop offset="0.63" stop-color="#9BD0E8"/>
<stop offset="0.83" stop-color="#8DCBE5"/>
<stop offset="1" stop-color="#86C8E4"/>
</radialGradient>
<radialGradient id="paint8_radial_1_26" cx="0" cy="0" r="1" gradientUnits="userSpaceOnUse" gradientTransform="translate(1666.2 937.926) scale(2959.42 1646.21)">
<stop stop-color="white"/>
<stop offset="0.15" stop-color="#FCFDFE"/>
<stop offset="0.27" stop-color="#F1F9FC"/>
<stop offset="0.38" stop-color="#E0F0F8"/>
<stop offset="0.49" stop-color="#C8E5F2"/>
<stop offset="0.59" stop-color="#A9D6EB"/>
<stop offset="0.63" stop-color="#9BD0E8"/>
<stop offset="0.83" stop-color="#8DCBE5"/>
<stop offset="1" stop-color="#86C8E4"/>
</radialGradient>
<radialGradient id="paint9_radial_1_26" cx="0" cy="0" r="1" gradientUnits="userSpaceOnUse" gradientTransform="translate(1666 937.926) scale(2959.42 1646.21)">
<stop stop-color="white"/>
<stop offset="0.15" stop-color="#FCFDFE"/>
<stop offset="0.27" stop-color="#F1F9FC"/>
<stop offset="0.38" stop-color="#E0F0F8"/>
<stop offset="0.49" stop-color="#C8E5F2"/>
<stop offset="0.59" stop-color="#A9D6EB"/>
<stop offset="0.63" stop-color="#9BD0E8"/>
<stop offset="0.83" stop-color="#8DCBE5"/>
<stop offset="1" stop-color="#86C8E4"/>
</radialGradient>
<radialGradient id="paint10_radial_1_26" cx="0" cy="0" r="1" gradientUnits="userSpaceOnUse" gradientTransform="translate(1666.2 937.926) scale(2959.42 1646.21)">
<stop stop-color="white"/>
<stop offset="0.15" stop-color="#FCFDFE"/>
<stop offset="0.27" stop-color="#F1F9FC"/>
<stop offset="0.38" stop-color="#E0F0F8"/>
<stop offset="0.49" stop-color="#C8E5F2"/>
<stop offset="0.59" stop-color="#A9D6EB"/>
<stop offset="0.63" stop-color="#9BD0E8"/>
<stop offset="0.83" stop-color="#8DCBE5"/>
<stop offset="1" stop-color="#86C8E4"/>
</radialGradient>
<clipPath id="clip0_1_26">
<rect width="1920" height="8779" fill="white" transform="translate(-251 -3634)"/>
</clipPath>
<clipPath id="clip1_1_26">
<rect width="1920" height="896" fill="white" transform="translate(-251 -480)"/>
</clipPath>
<clipPath id="clip2_1_26">
<rect width="524" height="691" fill="white" transform="translate(-374 -101)"/>
</clipPath>
</defs>
</svg>
